<?xml version="1.0" encoding="UTF-8" standalone="no"?>
<!-- Created with Inkscape (http://www.inkscape.org/) -->

<svg
   xmlns:dc="http://purl.org/dc/elements/1.1/"
   xmlns:cc="http://creativecommons.org/ns#"
   xmlns:rdf="http://www.w3.org/1999/02/22-rdf-syntax-ns#"
   xmlns:svg="http://www.w3.org/2000/svg"
   xmlns="http://www.w3.org/2000/svg"
   xmlns:sodipodi="http://sodipodi.sourceforge.net/DTD/sodipodi-0.dtd"
   xmlns:inkscape="http://www.inkscape.org/namespaces/inkscape"
   width="210mm"
   height="297mm"
   viewBox="0 0 744.09448819 1052.3622047"
   id="svg2"
   version="1.1"
   inkscape:version="0.91 r13725"
   sodipodi:docname="logo1.svg">
  <defs
     id="defs4" />
  <sodipodi:namedview
     id="base"
     pagecolor="#ffffff"
     bordercolor="#666666"
     borderopacity="1.0"
     inkscape:pageopacity="0.0"
     inkscape:pageshadow="2"
     inkscape:zoom="0.49497475"
     inkscape:cx="348.95549"
     inkscape:cy="541.64865"
     inkscape:document-units="px"
     inkscape:current-layer="svg2"
     showgrid="false"
     inkscape:window-width="1280"
     inkscape:window-height="968"
     inkscape:window-x="-4"
     inkscape:window-y="-4"
     inkscape:window-maximized="1" />
  <metadata
     id="metadata7">
    <rdf:RDF>
      <cc:Work
         rdf:about="">
        <dc:format>image/svg+xml</dc:format>
        <dc:type
           rdf:resource="http://purl.org/dc/dcmitype/StillImage" />
        <dc:title></dc:title>
      </cc:Work>
    </rdf:RDF>
  </metadata>
  <g
     inkscape:label="Layer 1"
     inkscape:groupmode="layer"
     id="layer1">
    <path
       style="fill:none;fill-rule:evenodd;stroke:#000000;stroke-width:1.14162588px;stroke-linecap:butt;stroke-linejoin:miter;stroke-opacity:1"
       d="M 415.6388,18.188395 54.355326,332.40406 519.92682,786.58851 225.68564,1020.822 400.74052,335.26056 207.06277,332.40406"
       id="path3344"
       inkscape:connector-curvature="0" />
  </g>
  <path
     style="fill:#000000;fill-rule:evenodd;stroke:#000000;stroke-width:1px;stroke-linecap:butt;stroke-linejoin:miter;stroke-opacity:1;fill-opacity:1"
     d="M 415.67777,18.723612 409.8694,11.905082 40.153564,333.13359 503.30851,784.92432 249.50768,986.19721 416.18285,324.04222 l -217.43534,-4.04061 0,13.8896 201.2729,1.76776 L 224.75894,1022.8152 521.49125,786.94462 55.305852,332.12344 Z"
     id="path4153"
     inkscape:connector-curvature="0" />
  <path
     style="fill:#000000;fill-opacity:1;stroke:none"
     d="m 334.98019,619.64717 -4.83341,-4.93841 1.23771,-4.65435 c 1.46288,-5.50105 1.12661,-5.51648 6.89221,0.31629 l 4.01893,4.06575 -1.24101,5.07456 -1.24101,5.07457 -4.83342,-4.93841 z"
     id="path4155"
     inkscape:connector-curvature="0" />
  <path
     style="fill:#000000;fill-opacity:1;stroke:none"
     id="path4157"
     d="m 336.20867,605.42108 c 0.19478,1.30578 0.2706,2.62129 0.52461,3.91744 0.34802,1.33134 0.55596,2.69252 0.94737,4.01153 0.91266,3.2908 1.34522,1.00206 -6.40216,4.37588 -0.11789,0.0513 -0.11735,-0.22882 -0.17703,-0.34271 -0.0866,-0.16523 -0.17446,-0.32975 -0.26169,-0.49463 -0.57835,-1.33995 -1.22698,-2.65248 -1.99889,-3.89161 -0.7983,-1.13039 -1.35057,-2.36699 -1.6514,-3.71265 -1.0498,-4.17547 2.30669,-3.77118 6.7341,-6.365 1.04957,0.23014 1.83917,0.86111 2.60932,1.56349 0.7381,0.74197 0.9645,1.70819 1.07122,2.71294 0.0821,1.13289 0.0777,2.26971 0.0779,3.4049 -0.0174,1.02505 0.0288,2.05213 -0.038,3.07553 -0.21359,1.11967 -0.81567,2.10122 -1.30626,3.11341 -0.41347,0.87671 -0.54245,1.86675 0.2162,2.56901 0.5337,0.23366 0.25653,0.15966 0.83098,0.22398 0,0 -6.1324,4.21195 -6.1324,4.21195 l 0,0 c -0.72057,-0.28949 -0.36697,-0.10594 -1.05375,-0.56402 -0.86157,-0.98822 -1.07309,-2.11597 -0.60529,-3.36075 0.42376,-0.98527 1.00194,-1.89149 1.36572,-2.90172 0.21885,-0.97638 0.0334,-2.00409 0.10462,-2.99802 0.008,-1.11118 0.026,-2.22404 -0.0446,-3.33369 -0.0816,-0.82435 -0.18773,-1.63369 -0.8218,-2.2326 -0.55588,-0.5108 -1.34077,-1.21162 -2.1371,-0.83993 2.01836,-1.21299 4.03862,-2.42283 6.05508,-3.63898 0.10014,-0.0604 -0.33773,0.0687 -0.48831,0.43502 -0.18922,0.46037 -0.006,0.97618 0.107,1.42413 0.22645,1.27479 0.70773,2.44452 1.46331,3.50485 0.80528,1.23138 1.4156,2.57263 2.06915,3.88883 0.0994,0.15806 0.1986,0.31627 0.29825,0.47418 0.0768,0.12163 0.3502,0.28402 0.23096,0.36443 -7.76678,5.23762 -5.82932,6.05102 -6.64014,2.88936 -0.36766,-1.3501 -0.53017,-2.73957 -0.89346,-4.09236 -0.30749,-1.27757 -0.39906,-2.57503 -0.65952,-3.86033 0,0 6.60598,-3.53186 6.60598,-3.53186 z"
     inkscape:connector-curvature="0" />
  <path
     style="fill:none;fill-rule:evenodd;stroke:#000000;stroke-width:1px;stroke-linecap:butt;stroke-linejoin:miter;stroke-opacity:1"
     d="m 331.33004,615.47123 c 3.04874,-0.25811 -0.10195,1.91835 0.50507,2.52538 0.11905,0.11905 0.38603,-0.11905 0.50508,0 0.1382,0.1382 -0.137,1.74631 0,2.02031 0.10648,0.21295 0.33672,0.33671 0.50507,0.50507"
     id="path4159"
     inkscape:connector-curvature="0" />
  <path
     style="fill:none;fill-rule:evenodd;stroke:#000000;stroke-width:1px;stroke-linecap:butt;stroke-linejoin:miter;stroke-opacity:1"
     d="m 335.37065,618.50169 c 0,0.67343 -0.13208,1.35994 0,2.0203 0.0467,0.23347 0.33671,0.33672 0.50507,0.50508 0.16836,0.16836 0.29212,0.39859 0.50508,0.50507 0.30117,0.15059 0.77206,-0.23809 1.01015,0 0.11905,0.11905 -0.11905,0.38603 0,0.50508 0.10326,0.10326 1.31497,-0.10013 1.51523,0 2.31611,1.15806 -1.72457,0 -0.50508,0 0.5324,0 1.07225,0.20976 1.51523,0.50508 0.14008,0.0934 0,0.33671 0,0.50507 0,0.16836 0,0.33672 0,0.50508 0,0.33672 0,0.67343 0,1.01015 0,0.16836 0.16836,0.50508 0,0.50508 -0.16836,0 0,-0.67344 0,-0.50508 0,0.33672 0,0.67344 0,1.01015"
     id="path4161"
     inkscape:connector-curvature="0" />
  <path
     style="fill:none;fill-rule:evenodd;stroke:#000000;stroke-width:1px;stroke-linecap:butt;stroke-linejoin:miter;stroke-opacity:1"
     d="m 345.47217,626.07783 c -0.48631,-1.50585 -1.77246,0.37646 -2.52538,0 -0.44767,-0.22383 -1.05545,-1.20871 -1.51523,-1.51523 -0.31323,-0.20882 -0.69692,-0.29625 -1.01015,-0.50507 -1.15577,-0.77052 0.31582,-0.39981 -1.51523,-1.01016 -0.31944,-0.10648 -1.34687,0 -1.01015,0 0.33671,0 1.34687,0 1.01015,0 -0.50508,0 -1.02523,0.1225 -1.51523,0 -0.23099,-0.0577 -0.30697,-0.373 -0.50508,-0.50507 -1.51522,-1.01016 -0.67343,0.16836 -1.51522,-1.51523"
     id="path4163"
     inkscape:connector-curvature="0" />
  <path
     style="fill:none;fill-rule:evenodd;stroke:#000000;stroke-width:1px;stroke-linecap:butt;stroke-linejoin:miter;stroke-opacity:1"
     d="m 346.48232,623.55245 c -2.8621,0 -5.72419,0 -8.58629,0 -0.29958,0 -3.39038,0.0726 -3.53554,0 -0.21296,-0.10648 -0.33671,-0.33672 -0.50507,-0.50508"
     id="path4165"
     inkscape:connector-curvature="0" />
  <path
     style="fill:none;fill-rule:evenodd;stroke:#000000;stroke-width:1px;stroke-linecap:butt;stroke-linejoin:miter;stroke-opacity:1"
     d="m 344.46202,625.06768 c -0.50508,-0.8418 -1.01015,-1.68359 -1.51523,-2.52538 -0.16836,0 -0.38603,0.11904 -0.50508,0 -0.2662,-0.2662 -0.38603,-0.65301 -0.50507,-1.01016 -0.0532,-0.15972 0.11904,-0.38602 0,-0.50507 -0.11905,-0.11905 -0.38603,0.11905 -0.50508,0 -0.0229,-0.0229 0,-2.28724 0,-2.52538 0,-0.16836 0,-0.33672 0,-0.50508 0,-0.16836 -0.16836,-0.50508 0,-0.50508 0.16836,0 0,0.33672 0,0.50508 0,0.33672 0,0.67344 0,1.01015 0,0.16836 0.0753,0.35449 0,0.50508 -0.10648,0.21296 -0.373,0.30697 -0.50508,0.50508 -0.20882,0.31323 -0.23887,0.74395 -0.50507,1.01015 -0.11905,0.11905 -0.38603,-0.11905 -0.50508,0 -0.34311,0.34311 0.51643,1.00447 -0.50507,1.51523 -0.13281,0.0664 -1.75619,0 -2.02031,0 -0.16836,0 -0.38603,0.11904 -0.50508,0 -0.11904,-0.11905 0.11905,-0.38603 0,-0.50508 -0.12153,-0.12154 -1.89876,0.12154 -2.0203,0 -0.11905,-0.11905 0,-0.33672 0,-0.50508 0,-1.42431 -0.0438,-0.96637 1.01015,-2.0203"
     id="path4167"
     inkscape:connector-curvature="0" />
  <path
     style="fill:#000000;fill-opacity:1;stroke:none"
     id="path4169"
     d="m 330.94368,615.53598 c -0.15331,-0.19385 -0.3589,-0.79876 -0.67614,-0.5407 0.18597,-0.0911 0.3571,-0.22269 0.55792,-0.27324 0.0523,-0.0132 -0.0472,0.0975 -0.0638,0.14885 -0.0871,0.2698 -0.0767,0.52177 -0.0361,0.79713 0.0911,0.45018 0.13272,0.90685 0.15759,1.36474 0.011,0.22872 0.0131,0.45769 0.02,0.68653 0.0108,0.3551 0.0757,0.10841 -0.66337,0.3269 0.009,-0.44797 -0.0198,-0.89659 0.0298,-1.34233 0.0931,-0.50409 0.15871,-1.01116 0.19452,-1.52237 0.0355,-0.20827 -0.16,-0.95523 -0.47328,-0.68246 0.18862,-0.0928 0.36244,-0.22538 0.56585,-0.27846 0.0507,-0.0132 -0.0433,0.0958 -0.0583,0.14601 -0.0833,0.27977 -0.0833,0.58516 -0.0956,0.87399 -0.002,0.50681 -0.0375,1.01672 0.0207,1.52105 0.14653,0.49764 0.5262,0.89117 0.87164,1.26481 0.30224,0.35395 0.54791,0.75128 0.82397,1.12561 0.40517,0.58806 0.98589,0.95989 1.60637,1.28577 0.51754,0.25086 1.09173,0.31638 1.64643,0.44262 0.46924,0.0953 0.94777,0.11708 1.38451,0.3269 0.34865,0.35436 0.49078,0.8587 0.59955,1.33196 0.082,0.55413 0.1685,1.12502 0.53334,1.5657 0.41765,0.37041 0.95763,0.44301 1.49256,0.48634 0.42457,-0.0408 0.93294,0.13116 1.3382,-0.0281 -0.20452,0.10516 -0.39987,0.23047 -0.61355,0.31547 -0.0209,0.008 -0.0206,-0.0404 -0.0355,-0.0573 -0.0329,-0.0374 -0.068,-0.0733 -0.10686,-0.10434 -0.17327,-0.13859 -0.37514,-0.24737 -0.56888,-0.35308 -0.0393,-0.0223 -0.35022,-0.20554 -0.42168,-0.22475 -0.0327,-0.009 -0.13121,0.0282 -0.10058,0.0138 0.21804,-0.10255 0.42942,-0.23665 0.66646,-0.2799 0.0555,-0.0101 0.0565,0.0985 0.0933,0.14128 0.0539,0.0627 0.1183,0.11553 0.17744,0.1733 0.53951,0.33558 1.09561,0.6564 1.67523,0.91856 0.16694,0.0362 0.28496,0.0859 0.45525,0.0378 0.0507,-0.0143 0.18368,-0.10265 0.13505,-0.0823 -0.8811,0.36875 -0.41092,0.39447 -0.66173,0.0434 -0.39415,-0.36116 -0.88164,-0.62489 -1.37494,-0.82577 -0.39133,-0.092 -1.37526,-0.37555 -1.71539,-0.17857 0.21928,-0.11336 0.42229,-0.26624 0.65783,-0.3401 0.0455,-0.0143 0.0618,0.074 0.10011,0.10243 0.0576,0.0427 0.12119,0.0774 0.18545,0.10934 0.25977,0.12913 0.53758,0.22945 0.81087,0.3246 0.56106,0.18351 1.14763,0.242 1.73258,0.28742 0.0113,0.006 0.2103,0.0733 0.0908,0.15561 -0.67155,0.46262 -0.85755,0.45895 -1.55909,0.50551 -0.57428,0.0136 -1.18824,0.15144 -1.68861,-0.19158 -0.32884,-0.36054 -0.32934,-0.82791 -0.27195,-1.28397 0.11512,-0.50517 0.38911,-0.92671 0.73541,-1.3029 0.49555,-0.59162 1.09935,-1.03033 1.84289,-1.2822 0.58988,-0.1078 0.81303,0.32629 0.95562,0.81937 0.0252,0.0742 0.0509,0.14813 0.0755,0.22246 0.0975,0.29434 0.0368,0.13189 0.13087,0.37715 0.007,0.017 0.0358,0.0417 0.02,0.0507 -0.73536,0.42082 -0.54885,0.53312 -0.84875,0.19479 -0.35608,-0.48387 -0.84449,-0.89779 -1.06038,-1.4688 -0.20752,-1.55636 1.12571,-0.19902 1.26362,-0.0388 0.33,0.41129 0.69029,0.84655 0.46085,1.38804 -0.73159,0.75033 -1.16505,0.72291 -1.96717,0.40443 -0.1362,-0.0745 -0.41955,-0.23585 -0.56929,-0.29371 -0.19857,-0.0767 -0.26549,-0.0211 -0.24752,-0.0307 0.79251,-0.42128 0.50022,-0.43878 0.97205,-0.34133 0.26659,0.052 0.53118,0.0687 0.80181,0.0457 0.0813,-0.007 0.30233,-0.087 0.24264,-0.0314 -0.98227,0.91442 -0.5019,0.27769 -0.42132,0.16586 -7.3e-4,-0.31665 -0.39046,-0.42746 -0.44427,-0.72989 0.23058,-0.14408 0.44734,-0.31309 0.69174,-0.43224 0.033,-0.0161 0.0665,0.0313 0.10005,0.0462 0.21266,0.0946 0.43091,0.17956 0.6462,0.26867 0.0725,0.0245 0.14495,0.0491 0.21743,0.0736 0,0 -0.61672,0.41759 -0.61672,0.41759 l 0,0 c -0.0735,-0.0257 -0.14707,-0.0513 -0.22061,-0.077 -0.17693,-0.0733 -0.35143,-0.14868 -0.5313,-0.21424 -0.0389,-0.0142 -0.0762,-0.0335 -0.11632,-0.0438 -0.0228,-0.006 -0.089,0.0105 -0.0704,-0.004 0.18118,-0.13935 0.38023,-0.25379 0.57034,-0.38068 -0.049,0.29035 0.54384,0.43691 0.45867,0.76887 -0.30956,0.72662 -1.29821,0.65458 -1.92068,0.55219 -0.0687,-0.0153 -0.23617,0.0178 -0.20604,-0.0457 0.37217,-0.78519 0.75297,-0.39293 1.28034,-0.12818 0.23503,0.0906 0.45569,0.19685 0.71426,0.18601 0.0767,-0.003 0.27525,-0.0971 0.22719,-0.0373 -0.11002,0.13696 -0.28629,0.20412 -0.4356,0.29669 -0.0592,0.0367 0.10969,-0.0857 0.16453,-0.12863 0.29264,-0.48711 -0.12014,-0.93329 -0.41764,-1.31121 -0.15251,-0.17334 -0.15646,-0.19339 -0.33202,-0.3347 -0.0425,-0.0342 -0.0849,-0.07 -0.13366,-0.0942 -0.0252,-0.0125 -0.10502,0.004 -0.0833,-0.0136 0.57954,-0.47629 0.52941,-0.58681 0.57496,-0.2644 0.19319,0.56799 0.69173,0.97351 1.04579,1.44228 0.28698,0.29091 0.21652,0.13355 -0.45089,0.55665 -0.0148,0.009 -0.007,-0.0344 -0.0128,-0.051 -0.0678,-0.20241 -0.13961,-0.40357 -0.20523,-0.60679 -0.13176,-0.46846 -0.33374,-0.85546 -0.88925,-0.71731 -0.28734,0.10961 -0.47679,0.19774 0.19463,-0.17175 0.0733,-0.0403 -0.14179,0.0894 -0.20764,0.14104 -0.16517,0.12949 -0.23609,0.21924 -0.37823,0.37361 -0.06,0.0651 -0.11995,0.1303 -0.17993,0.19545 -0.35166,0.3593 -0.62106,0.76958 -0.75324,1.25975 -0.0589,0.42555 -0.0801,0.87246 0.23307,1.21041 0.49248,0.31417 1.10243,0.16263 1.65578,0.15478 0.20683,-0.0165 0.37511,-0.025 0.57783,-0.0586 0.0709,-0.0117 0.26321,-0.0942 0.21087,-0.045 -0.36163,0.34032 -0.38572,0.38959 -0.52426,0.31573 -0.58636,-0.0572 -1.17527,-0.11587 -1.73692,-0.30707 -0.33635,-0.11902 -0.73696,-0.23479 -1.02306,-0.45802 -0.0444,-0.0346 -0.15053,-0.0776 -0.11637,-0.12234 0.15531,-0.20342 0.39155,-0.32967 0.58733,-0.4945 0.49041,-0.1267 1.25542,0.11271 1.74186,0.23133 0.50318,0.21192 1.00448,0.4821 1.4045,0.85715 0.45317,0.65906 -0.72287,0.98558 -1.19282,0.79129 -0.58303,-0.27262 -1.14786,-0.5936 -1.68999,-0.9393 -0.13265,-0.12954 -0.32691,-0.30433 -0.29703,-0.34548 0.50345,-0.69309 0.61704,-0.57205 1.13845,-0.27374 0.0625,0.0347 0.87471,0.50011 0.77029,0.60111 -0.19383,0.18751 -0.4423,0.30871 -0.66345,0.46306 -0.43819,0.0862 -0.90521,-0.008 -1.34803,9.4e-4 -0.55219,-0.0518 -1.10214,-0.14353 -1.52418,-0.53644 -0.36732,-0.45437 -0.47259,-1.02573 -0.55128,-1.59498 -0.10076,-0.44934 -0.23079,-0.9404 -0.56769,-1.2718 -0.43605,-0.19493 -0.91038,-0.21528 -1.37256,-0.31604 -0.55884,-0.12722 -1.13712,-0.1965 -1.65392,-0.46121 -0.62618,-0.3366 -1.21157,-0.71994 -1.62844,-1.3109 -0.27587,-0.37122 -0.51931,-0.76679 -0.81868,-1.11962 -0.35391,-0.38796 -0.74384,-0.79073 -0.895,-1.30468 -0.0648,-0.50725 -0.0258,-1.02092 -0.0268,-1.53133 0.006,-0.15945 0.0155,-0.95562 0.13047,-1.05482 0.21778,-0.18793 0.47309,-0.32734 0.70964,-0.49102 0.42158,-0.0906 0.54371,0.51283 0.55034,0.81853 -0.0341,0.51232 -0.0955,1.02123 -0.19266,1.52573 -0.0574,0.44152 -0.0227,0.88728 -0.0285,1.33178 -0.96219,0.7007 -0.62224,0.63824 -0.68579,-0.33184 -0.0239,-0.45538 -0.0635,-0.90988 -0.1561,-1.35723 -0.0301,-0.18993 -0.0915,-0.85665 0.0715,-0.99643 0.22031,-0.18904 0.47763,-0.33009 0.71644,-0.49513 0.39464,-0.11289 0.54699,0.38924 0.7418,0.63947 0,0 -0.65188,0.37117 -0.65188,0.37117 z"
     inkscape:connector-curvature="0" />
  <path
     style="fill:#000000;fill-opacity:1;stroke:none"
     id="path4171"
     d="m 339.21415,622.79859 c -0.50804,0.10111 -1.01841,0.15693 -1.53181,0.0686 -0.0212,-0.0108 -0.0819,-0.0174 -0.0635,-0.0325 0.20993,-0.1721 0.43258,-0.33105 0.6692,-0.46409 0.0964,-0.0542 1.07368,-0.0327 1.21547,-0.035 0.76597,-0.0315 1.53681,0.0333 2.3,-0.0446 0,0 -0.59413,0.44005 -0.59413,0.44005 l 0,0 c -0.76441,0.0629 -1.53389,0.008 -2.3001,0.038 -0.34839,0.007 -0.70205,0.004 -1.04924,0.0389 -0.0556,0.006 -0.20447,0.068 -0.1651,0.0284 0.46544,-0.46824 0.34505,-0.49965 0.60072,-0.39944 0.50854,0.0829 1.01472,0.0131 1.51567,-0.0905 0,0 -0.59721,0.45217 -0.59721,0.45217 z"
     inkscape:connector-curvature="0" />
  <path
     style="fill:#000000;fill-opacity:1;stroke:none"
     id="path4173"
     d="m 341.77638,624.12788 c -0.41187,-0.57509 -0.84314,-1.13714 -1.23559,-1.72605 -0.41607,-0.51488 -0.71883,-1.11001 -1.12156,-1.63268 -0.30598,-0.36772 -0.469,-0.82065 -0.69013,-1.23834 -0.2393,-0.41075 -0.32542,-0.86921 -0.37517,-1.33501 -0.0401,-0.50813 -0.0717,-1.01217 0.0619,-1.50742 0.14953,-0.34139 0.0615,-0.17947 0.26299,-0.48644 0,0 0.68079,-0.29676 0.68079,-0.29676 l 0,0 c -0.20891,0.29094 -0.1177,0.13636 -0.27258,0.46437 -0.14615,0.48498 -0.1106,0.98045 -0.0734,1.48146 0.0465,0.45688 0.12703,0.90686 0.36201,1.30972 0.21901,0.41424 0.38076,0.8629 0.68149,1.22909 0.39971,0.52691 0.70475,1.1213 1.11668,1.64111 0.39202,0.58798 0.82615,1.14748 1.24695,1.71457 0,0 -0.64434,0.38238 -0.64434,0.38238 z"
     inkscape:connector-curvature="0" />
  <path
     style="fill:#000000;fill-opacity:1;stroke:none"
     id="path4175"
     d="m 340.81852,623.578 c -0.29023,-0.90645 -0.6552,-1.78345 -1.00323,-2.66836 -0.43191,-1.08006 -0.88515,-2.14768 -1.25485,-3.25094 -0.27009,-0.71512 -0.36529,-1.46957 -0.4936,-2.21674 -0.0853,-0.55084 -0.22659,-1.1074 -0.20013,-1.6682 0.91408,-1.29592 0.81616,0.43191 0.83159,0.75817 0.0281,0.79081 0.0293,1.5822 0.0319,2.37339 9.7e-4,0.76844 -3.8e-4,1.53688 -2.4e-4,2.30532 -0.0375,0.56551 0.0561,1.04279 0.53714,1.37255 0.5105,0.2345 1.07551,0.2661 1.60405,0.0924 -0.11602,0.0589 -0.232,0.23531 -0.34805,0.17654 -0.0997,-0.0505 0.17026,-0.14565 0.24486,-0.2288 0.27882,-0.31078 0.40606,-0.68486 0.50464,-1.08105 0.0997,-0.52051 0.0939,-1.05261 0.0928,-1.58028 0.0314,-0.61385 0.1853,-1.2073 0.30903,-1.8061 0.0803,-0.30238 0.164,-0.60364 0.24119,-0.90685 0,0 0.66836,-0.3199 0.66836,-0.3199 l 0,0 c -0.0765,0.30281 -0.1591,0.60373 -0.24387,0.90434 -0.12081,0.59458 -0.2766,1.18214 -0.31242,1.79085 0.002,0.53306 0.008,1.07012 -0.0864,1.5969 -0.24244,1.04287 -0.65512,1.41044 -1.65539,1.90635 -0.54871,0.15121 -1.13234,0.11585 -1.64747,-0.1443 -0.48868,-0.35692 -0.60891,-0.84464 -0.56499,-1.43811 10e-4,-0.76849 10e-4,-1.53699 10e-4,-2.30548 -9.9e-4,-0.78986 -0.002,-1.57999 -0.0321,-2.36939 -0.0149,-0.29392 -0.0243,-0.58903 -0.0707,-0.8802 -0.009,-0.0545 -0.0719,-0.12409 -0.0321,-0.1623 0.18357,-0.17641 0.42466,-0.28096 0.63798,-0.41991 0.0146,-0.01 -0.0279,0.0211 -0.0419,0.0316 -0.0602,0.55252 0.11219,1.11116 0.18436,1.65543 0.13156,0.74359 0.21018,1.49876 0.47912,2.21205 0.36745,1.103 0.81217,2.1728 1.2478,3.25043 0.35118,0.88694 0.7187,1.76614 1.03228,2.66746 0,0 -0.66059,0.35318 -0.66059,0.35318 z"
     inkscape:connector-curvature="0" />
  <path
     style="fill:#000000;fill-opacity:1;stroke:none"
     id="path4177"
     d="m 342.61374,618.2376 c 0.0726,-0.66526 0.19034,-1.32469 0.1811,-1.99534 0.0218,-0.75071 -0.31412,-1.36595 -0.68866,-1.98682 -0.33603,-0.61101 -0.74879,-1.17446 -1.09811,-1.77735 -0.2638,-0.52751 -0.59651,-0.94701 -1.14083,-1.18578 -0.42941,-0.21454 -0.8253,-0.4859 -1.2671,-0.6761 -0.0786,-0.0367 -0.15713,-0.0734 -0.2357,-0.11008 0,0 0.6197,-0.41034 0.6197,-0.41034 l 0,0 c 0.0784,0.0362 0.15686,0.0723 0.2353,0.10845 0.43903,0.19587 0.83752,0.46384 1.26776,0.67692 0.54764,0.25837 0.89248,0.68845 1.16145,1.22711 0.3469,0.60361 0.76125,1.16553 1.09447,1.77763 0.38353,0.62981 0.7248,1.25737 0.70875,2.02007 0.0152,0.6696 -0.10013,1.32792 -0.17203,1.99223 0,0 -0.6661,0.3394 -0.6661,0.3394 z"
     inkscape:connector-curvature="0" />
  <path
     style="fill:#000000;fill-opacity:1;stroke:none"
     id="path4179"
     d="m 343.7697,617.06108 c -0.4263,-0.45031 -0.84124,-0.91185 -1.27651,-1.35382 -0.44334,-0.37799 -0.83037,-0.80179 -1.23233,-1.22113 -0.37674,-0.43164 -0.73423,-0.87846 -1.09141,-1.32608 -0.40966,-0.43217 -0.69869,-0.9598 -1.04713,-1.43926 -0.0587,-0.0718 -0.11732,-0.14365 -0.17598,-0.21548 0,0 0.63666,-0.38127 0.63666,-0.38127 l 0,0 c 0.0594,0.0731 0.11871,0.14616 0.17807,0.21924 0.34483,0.48056 0.63727,1.00381 1.04427,1.43677 0.35633,0.44562 0.71417,0.88938 1.08882,1.32005 0.39974,0.42096 0.79203,0.83936 1.23169,1.22045 0.43219,0.44517 0.846,0.90823 1.28175,1.34962 0,0 -0.6379,0.39091 -0.6379,0.39091 z"
     inkscape:connector-curvature="0" />
  <path
     style="fill:#000000;fill-opacity:1;stroke:none"
     id="path4181"
     d="m 344.75065,618.29295 c -0.57068,-0.54721 -1.09707,-1.13304 -1.61101,-1.73291 -0.54242,-0.59099 -1.06419,-1.19728 -1.57336,-1.81693 -0.34079,-0.47813 -0.72053,-0.91972 -1.03664,-1.41486 -0.26728,-0.38073 -0.59422,-0.70886 -0.90534,-1.05218 -0.3002,-0.28857 -0.59072,-0.5854 -0.86996,-0.89452 0,0 0.63441,-0.38462 0.63441,-0.38462 l 0,0 c 0.28113,0.30728 0.57414,0.60217 0.87149,0.89352 0.31556,0.34495 0.64458,0.67682 0.91156,1.0632 0.31452,0.49212 0.68891,0.9344 1.02709,1.41032 0.50765,0.62018 1.02625,1.22844 1.57146,1.81628 0.51222,0.5998 1.03452,1.18839 1.61619,1.72302 0,0 -0.63589,0.38968 -0.63589,0.38968 z"
     inkscape:connector-curvature="0" />
  <path
     style="fill:#000000;fill-opacity:1;stroke:none"
     id="path4183"
     d="m 342.81211,616.76537 c -0.27179,-0.5705 -0.52268,-1.14911 -0.77267,-1.72923 -0.27989,-0.52674 -0.51179,-1.08366 -0.85625,-1.57248 -0.38476,-0.50236 -0.72706,-1.03209 -1.08354,-1.5546 -0.34733,-0.56879 -0.76991,-1.08253 -1.14576,-1.63165 -0.22508,-0.37246 -0.12168,-0.18425 -0.31131,-0.56403 0,0 0.64349,-0.36617 0.64349,-0.36617 l 0,0 c 0.18475,0.37391 0.0836,0.18842 0.30485,0.55579 0.37685,0.54831 0.79983,1.06192 1.14346,1.63313 0.35732,0.52174 0.70698,1.0464 1.08841,1.55079 0.3443,0.49523 0.58085,1.05458 0.86172,1.58677 0.24995,0.58056 0.49538,1.16227 0.7812,1.72669 0,0 -0.6536,0.36499 -0.6536,0.36499 z"
     inkscape:connector-curvature="0" />
  <path
     style="fill:#000000;fill-opacity:1;stroke:none"
     id="path4185"
     d="m 340.28759,616.79867 c -0.32845,-0.54435 -0.6492,-1.09582 -0.95774,-1.65255 -0.34587,-0.68822 -0.75961,-1.33809 -1.18668,-1.97801 -0.36147,-0.50001 -0.47748,-1.08406 -0.54544,-1.68349 -0.046,-0.53362 -0.0414,-1.0698 -0.0399,-1.60489 -0.0159,-0.2984 0.005,-0.5662 0.20605,-0.79436 0,0 0.69279,-0.28432 0.69279,-0.28432 l 0,0 c -0.24137,0.18396 -0.24862,0.45171 -0.23635,0.74142 -0.002,0.53281 -0.008,1.06662 0.0345,1.59821 0.063,0.58882 0.17277,1.16162 0.52619,1.65379 0.42579,0.64298 0.83521,1.29785 1.18844,1.98391 0.3084,0.55775 0.62858,1.11183 0.97002,1.64912 0,0 -0.65188,0.37117 -0.65188,0.37117 z"
     inkscape:connector-curvature="0" />
  <path
     style="fill:#000000;fill-opacity:1;stroke:none"
     id="path4187"
     d="m 339.55582,613.47648 c -0.17029,-0.64772 -0.40565,-1.27469 -0.61698,-1.90923 -0.29406,-0.70534 -0.69434,-1.35784 -1.01705,-2.04889 -0.0484,-0.0893 -0.0968,-0.17865 -0.14514,-0.26797 0,0 0.64254,-0.36833 0.64254,-0.36833 l 0,0 c 0.0484,0.091 0.0968,0.18192 0.14525,0.27289 0.32023,0.69535 0.72331,1.34953 1.01954,2.05698 0.21261,0.63655 0.44592,1.26613 0.63244,1.91136 0,0 -0.6606,0.35319 -0.6606,0.35319 z"
     inkscape:connector-curvature="0" />
  <path
     style="fill:#000000;fill-opacity:1;stroke:none"
     id="path4189"
     d="m 340.51369,614.53143 c -0.42605,-0.56566 -0.65066,-1.21732 -0.79107,-1.90282 -0.14735,-0.66611 -0.0721,-1.35637 -0.19883,-2.0218 -0.11852,-0.48811 -0.26805,-0.96857 -0.49178,-1.41881 0,0 0.64562,-0.3672 0.64562,-0.3672 l 0,0 c 0.22466,0.45717 0.37753,0.94316 0.49825,1.43766 0.13456,0.66495 0.0536,1.35511 0.19617,2.02265 0.13643,0.67484 0.35183,1.32047 0.78598,1.86794 0,0 -0.64434,0.38238 -0.64434,0.38238 z"
     inkscape:connector-curvature="0" />
  <path
     style="fill:#000000;fill-opacity:1;stroke:none"
     id="path4191"
     d="m 338.77112,614.20748 c -0.22385,-0.9 -0.63312,-1.73742 -0.93792,-2.61132 -0.34379,-0.90865 -0.673,-1.82155 -0.88383,-2.77102 -0.0195,-0.11264 -0.0389,-0.22528 -0.0584,-0.33792 0,0 0.65252,-0.34628 0.65252,-0.34628 l 0,0 c 0.0183,0.11195 0.0366,0.22391 0.0548,0.33586 0.20183,0.94962 0.52604,1.86154 0.87111,2.7678 0.30505,0.87342 0.71469,1.7081 0.95605,2.6025 0,0 -0.65436,0.36038 -0.65436,0.36038 z"
     inkscape:connector-curvature="0" />
  <path
     style="fill:#000000;fill-opacity:1;stroke:none"
     id="path4193"
     d="m 338.57313,615.20714 c 0.008,-0.80164 0.006,-1.60332 0.007,-2.40499 0.002,-0.90047 -5.4e-4,-1.80095 -9.6e-4,-2.70143 -9.4e-4,-0.65608 -0.002,-1.31216 -0.003,-1.96824 0,0 0.6613,-0.33694 0.6613,-0.33694 l 0,0 c -8.3e-4,0.6572 -0.002,1.31441 -0.003,1.97162 -4.2e-4,0.9008 -0.003,1.8016 -9.6e-4,2.70241 2e-4,0.79939 -9.5e-4,1.59881 0.007,2.39818 0,0 -0.6661,0.33939 -0.6661,0.33939 z"
     inkscape:connector-curvature="0" />
  <path
     style="fill:#000000;fill-opacity:1;stroke:none"
     id="path4195"
     d="m 338.29313,614.73917 c -0.12332,-0.83669 -0.2182,-1.67799 -0.36859,-2.51033 -0.15137,-0.75578 -0.26669,-1.51721 -0.32713,-2.28558 -0.0177,-0.52003 -0.0709,-1.04596 -0.009,-1.56425 0.16452,-0.52273 1.00484,-1.10016 1.4307,-0.57191 0.0608,0.0754 0.0976,0.16725 0.14648,0.25088 0.28087,0.66005 0.29327,1.38555 0.31945,2.09126 0.0164,0.60471 0.0121,1.20972 0.009,1.81458 0.0382,0.48952 -0.0388,0.93417 -0.26061,1.37046 -0.23733,0.1295 -0.45196,0.31444 -0.71198,0.3885 -0.0432,0.0123 -0.0982,-0.19868 -0.12282,-0.40549 -0.0527,-0.44228 -0.048,-0.89357 -0.0581,-1.33797 0.0392,-0.92707 -0.0959,-1.87138 0.005,-2.79515 0.23742,-0.12819 0.44867,-0.32689 0.71224,-0.38457 0.0779,-0.0171 0.092,0.13063 0.13154,0.19994 0.27737,0.48671 0.48233,0.99519 0.66391,1.52381 0.34344,0.86563 0.55992,1.76634 0.79612,2.66417 0.20528,0.70191 0.59949,1.31719 0.94051,1.95626 0.36307,0.52703 0.49415,1.12923 0.64419,1.73689 0.0943,0.43269 0.0411,0.21696 0.15986,0.64713 0,0 -0.64903,0.35319 -0.64903,0.35319 l 0,0 c -0.12129,-0.43272 -0.0674,-0.21661 -0.16233,-0.64816 -0.14985,-0.60132 -0.27362,-1.19967 -0.63374,-1.72196 -0.34114,-0.6455 -0.74097,-1.2646 -0.94569,-1.973 -0.23296,-0.89722 -0.44364,-1.79769 -0.79042,-2.66102 -0.14543,-0.42445 -0.30218,-0.81713 -0.51342,-1.213 -0.051,-0.0955 -0.098,-0.19323 -0.15343,-0.2862 -0.0286,-0.048 -0.1357,-0.0943 -0.0983,-0.13592 0.15283,-0.17029 0.37818,-0.2577 0.56727,-0.38655 -0.16397,0.91128 0.0345,1.87182 -0.0259,2.79161 0.012,0.4396 0.0133,0.88367 0.0669,1.32095 0.009,0.0751 0.0224,0.14973 0.0392,0.22348 0.006,0.0278 0.0518,0.0619 0.0298,0.0801 -0.17554,0.14486 -0.38288,0.24615 -0.57432,0.36923 0.24172,-0.42054 0.31855,-0.85616 0.28133,-1.33983 0.004,-0.6048 0.0102,-1.20973 -0.003,-1.81447 -0.023,-0.69328 -0.0336,-1.40706 -0.30624,-2.0565 -0.0866,-0.14502 -0.13103,-0.28271 -0.29858,-0.35213 -0.057,-0.0236 -0.22321,0.0292 -0.18429,-0.0187 0.11308,-0.13928 0.29233,-0.20851 0.44511,-0.30254 0.10554,-0.065 -0.42076,0.28137 -0.22848,0.29331 -0.0779,0.5121 -0.011,1.03677 -0.002,1.55239 0.0553,0.76745 0.16355,1.52879 0.31503,2.28335 0.14943,0.82994 0.24487,1.66879 0.38389,2.50058 0,0 -0.6606,0.35319 -0.6606,0.35319 z"
     inkscape:connector-curvature="0" />
  <path
     style="fill:#000000;fill-opacity:1;stroke:none"
     id="path4197"
     d="m 342.47951,622.36757 c -0.7706,-0.65969 -1.52934,-1.33996 -2.29408,-2.00983 -0.87572,-0.77582 -1.7443,-1.56304 -2.5496,-2.41237 -0.63636,-0.72223 -1.1424,-1.54484 -1.70929,-2.31957 -0.32901,-0.53314 -0.74772,-0.91528 -1.34369,-1.10533 -0.0698,-0.005 -0.26145,0.032 -0.20939,-0.0147 0.14061,-0.12624 0.3191,-0.23694 0.5074,-0.25282 0.0761,-0.006 -0.0614,0.14125 -0.075,0.21637 -0.0181,0.10024 -0.0218,0.20316 -0.0192,0.305 0.006,0.24154 0.0655,0.58744 0.10051,0.82255 0.0282,0.44035 0.52195,1.53604 0.28819,1.90436 -0.25888,0.11294 -0.5057,0.25902 -0.77662,0.33883 -0.10857,0.032 -0.21302,-0.10202 -0.32599,-0.095 -0.0479,0.003 -0.17646,0.075 -0.13442,0.0518 0.60565,-0.33415 0.61946,-0.42657 0.42957,-0.10186 -0.21084,0.60244 -0.11047,1.25284 -0.009,1.86749 0.16251,0.75709 0.40109,1.4916 0.79079,2.16247 -0.26176,0.28261 0.41541,0.0696 0.31889,0.13224 -0.13947,0.0906 -0.29926,0.2664 -0.45426,0.20619 -0.11557,-0.0449 0.16318,-0.18828 0.22747,-0.29429 0.22274,-0.36727 0.25707,-0.57363 0.39044,-0.99432 0.43309,-1.3777 0.7844,-2.77586 1.0123,-4.20186 0,0 0.6499,-0.3182 0.6499,-0.3182 l 0,0 c -0.23097,1.42768 -0.58753,2.82663 -1.00701,4.21038 -0.175,0.59252 -0.82046,2.51294 -1.77875,1.62982 -0.3882,-0.68115 -0.63042,-1.42297 -0.80073,-2.18681 -0.10956,-0.62613 -0.20578,-1.28466 -0.0203,-1.90552 0.16307,-0.37857 0.57061,-0.70759 1.00005,-0.68385 0.0567,0.003 0.11079,0.0252 0.16554,0.0402 0.0536,0.0147 0.19631,0.007 0.15948,0.0491 -0.14431,0.16328 -0.35663,0.25051 -0.53495,0.37576 0.0283,-0.0111 0.0726,-0.005 0.085,-0.0333 0.16234,-0.3623 -0.30885,-1.40069 -0.32435,-1.81068 -0.11827,-0.76236 -0.43583,-2.03625 0.95979,-1.83678 0.6011,0.20933 1.0275,0.60575 1.36255,1.14785 0.55753,0.77718 1.06137,1.59703 1.69621,2.31619 0.80296,0.84824 1.6692,1.63373 2.54241,2.40875 0.7676,0.66807 1.52544,1.35304 2.31258,1.99453 0,0 -0.63248,0.39728 -0.63248,0.39728 z"
     inkscape:connector-curvature="0" />
  <path
     style="fill:#000000;fill-opacity:1;stroke:none"
     id="path4199"
     d="m 337.61572,613.68114 c -0.40757,0.4617 -0.84488,0.89548 -1.25942,1.35099 -0.0728,0.0827 -0.14553,0.16545 -0.21829,0.24818 0,0 -0.68116,0.28738 -0.68116,0.28738 l 0,0 c 0.0726,-0.083 0.14524,-0.1661 0.21786,-0.24916 0.40955,-0.45725 0.85237,-0.88354 1.24981,-1.35108 0,0 0.6912,-0.28631 0.6912,-0.28631 z"
     inkscape:connector-curvature="0" />
</svg>
